<svg xmlns="http://www.w3.org/2000/svg" xmlns:xlink="http://www.w3.org/1999/xlink" version="1.1" x="0px" y="0px" viewBox="0 0 24 28.283749999999998" style="enable-background:new 0 0 24 22.627;" xml:space="preserve"><g><path d="M22,6.313h-2c-1.1,0-2.334-0.836-2.742-1.857l-0.516-1.285C16.334,2.149,15.1,1.314,14,1.314h-4   c-1.1,0-2.334,0.836-2.742,1.857L7.094,3.579l4.751,4.75C11.897,8.327,11.947,8.314,12,8.314c2.762,0,5,2.238,5,5   c0,0.053-0.014,0.102-0.016,0.155l6.774,6.774C23.908,19.964,24,19.65,24,19.313v-11C24,7.214,23.1,6.313,22,6.313z"/><path d="M2,21.313h17.172l-4.09-4.09c-0.852,0.672-1.912,1.09-3.082,1.09c-2.762,0-5-2.238-5-5c0-1.169,0.418-2.231,1.09-3.082   L4.156,6.3C4.104,6.303,4.052,6.313,4,6.313H2c-1.1,0-2,0.9-2,2v11C0,20.413,0.9,21.313,2,21.313z"/><path d="M9,13.314c0,1.656,1.344,3,3,3c0.617,0,1.189-0.186,1.666-0.506l0,0l-3.561-3.561l-0.6-0.6C9.187,12.124,9,12.697,9,13.314   z"/><rect x="11" y="-3.687" transform="matrix(0.7071 -0.7071 0.7071 0.7071 -4.485 11.7993)" width="2.001" height="30"/></g><text x="0" y="37.626999999999995" fill="#000000" font-size="5px" font-weight="bold" font-family="'Helvetica Neue', Helvetica, Arial-Unicode, Arial, Sans-serif">Created by Hea Poh Lin</text><text x="0" y="42.626999999999995" fill="#000000" font-size="5px" font-weight="bold" font-family="'Helvetica Neue', Helvetica, Arial-Unicode, Arial, Sans-serif">from the Noun Project</text></svg>